<svg xmlns="http://www.w3.org/2000/svg" width="126" height="126" fill="none"><path fill="#D71D35" fill-rule="evenodd" d="M63.022.625c34.472.001 62.354 27.903 62.345 62.388-.009 34.473-27.914 62.344-62.405 62.33C28.502 125.328.643 97.404.667 62.903.691 28.486 28.588.623 63.022.625ZM77.3 29.94c-.04-.272-.07-.471-.098-.67-.269-1.909-.576-3.806-1.343-5.599-.97-2.267-2.677-3.531-5.116-3.728a38.405 38.405 0 0 0-4.251-.099c-3.11.093-6.212.105-9.324-.034-1.906-.084-3.834.238-5.746.443-.359.038-.766.318-1.008.607-.406.485-.808 1.028-1.013 1.616a42.89 42.89 0 0 0-1.192 4.074c-.267 1.107-.399 2.247-.59 3.368-1.391.209-3.056-.509-3.824 1.357 1.448 1.425 2.082 3.199 2.425 5.082.369 2.026.612 4.075.977 6.102.257 1.425.625 2.831.947 4.244.127.557.431.868 1.056.871.572.002 1.142.125 1.715.162 5.604.356 11.214.511 16.827.369 2.632-.067 5.259-.328 7.889-.482.653-.039.895-.353 1.033-.985.699-3.2 1.479-6.383 2.182-9.583.436-1.985.905-3.949 1.916-5.739.111-.198.161-.43.265-.717-1.139-.784-2.437-.481-3.727-.659Zm31.331 22.043c-1.254-.062-2.363-.171-3.47-.161-2.027.02-4.053.105-6.079.171-3.95.131-7.899.288-11.85.395-2.258.06-4.519.074-6.778.053-4.8-.045-9.598-.158-14.398-.186-9.636-.056-19.272-.086-28.907-.097-1.688-.002-3.376.116-5.062.218-2.089.126-4.174.356-6.265.424-2.194.071-4.393-.009-6.59-.001-1.869.007-2.059.235-1.884 2.112.062.666.113.734.805.741 1.285.013 2.571.015 3.855-.006 6.556-.107 13.11-.253 19.666-.322 3.306-.035 6.613.095 9.92.091 4.65-.005 9.301-.043 13.951-.11 4.493-.065 8.986-.19 13.479-.278.777-.015 1.555.046 2.332.037 3.614-.044 7.228-.102 10.842-.151.744-.01 1.488.012 2.232-.004 2.061-.045 4.121-.096 6.182-.156 2.496-.071 4.991-.151 7.487-.237.188-.007.374-.088.532-.128v-2.405ZM46.273 75.332c-1.989-4.7-4.166-9.155-5.516-13.893-1.61-.136-1.677-.15-1.971 1.247a334.211 334.211 0 0 0-1.763 9.046c-.481 2.657-.889 5.328-1.323 7.994-.068.423-.219.876.205 1.161.65-.052 1.251-.111 1.854-.146.373-.022.514-.215.574-.568.366-2.162.735-4.324 1.132-6.481.294-1.596.631-3.183.949-4.775 1.776 4.045 3.267 8.162 5.147 12.058h1.716c.767-2.03 1.513-3.985 2.245-5.945.72-1.927 1.349-3.891 2.314-5.744.561 1.912 1.065 3.797 1.455 5.706.391 1.912.67 3.847.999 5.776h2.454c.317-1.401-2.397-16.777-3.429-19.589h-1.434c-.714 1.674-1.484 3.36-2.156 5.084-.92 2.358-1.761 4.747-2.647 7.119-.231.618-.503 1.222-.805 1.95Zm-26.61-13.457c.033.704.088 1.236.079 1.767-.025 1.451-.11 2.902-.108 4.353.001 1.689.058 3.377.109 5.065.068 2.228.152 4.456.232 6.685.04 1.144.093 1.224 1.203 1.26 1.621.052 3.244.092 4.867.086 1.683-.007 3.367-.067 5.05-.125.356-.013.709-.118 1.088-.184-.024-.531-.035-.966-.065-1.399-.061-.888-.208-1.033-1.122-1.036a739.408 739.408 0 0 0-6.492.002c-.494.003-.988.063-1.536.1.014-2.02-.198-3.953.005-5.954.468 0 .837.003 1.205 0 1.859-.016 3.718-.026 5.577-.053.628-.009.793-.18.742-.786-.053-.627-.163-1.25-.258-1.941h-7.268l-.297-5.209 9.055-.322c.319-.934-.052-1.729-.085-2.555l-11.981.246ZM64.636 74.12c.152-.105.177-.136.205-.139.167-.021.334-.041.502-.051 2.028-.121 4.025-.357 5.938-1.134 1.272-.517 2.289-1.32 3.047-2.423.758-1.105 1.005-2.318.557-3.657-.803-2.397-2.431-3.992-4.796-4.697-2.679-.798-5.444-.819-8.305-.415v1.041c-.003 1.115.004 2.231-.012 3.347-.049 3.545-.124 7.09-.151 10.636-.008 1.078.104 2.157.169 3.235.022.369.012.84.506.857.757.026 1.518-.059 2.34-.1v-6.5Zm36.541 6.554c.023-.46.055-.791.055-1.122.005-2.635.013-5.271-.005-7.906-.004-.535.124-.992.433-1.418 2.002-2.763 3.999-5.528 5.997-8.293.153-.212.294-.433.468-.691-.172-.093-.29-.215-.395-.205-.971.094-1.938.233-2.91.309-.347.027-.545.161-.737.429-1.547 2.158-3.106 4.307-4.697 6.509-.221-.315-.44-.61-.641-.917-1.055-1.611-2.133-3.207-3.148-4.843-.628-1.012-1.358-1.658-2.628-1.228-.03.01-.067-.002-.101 0-.418.034-.954-.191-1.199.282-.258.497.206.872.425 1.275.032.059.074.113.112.169 1.777 2.592 3.543 5.191 5.339 7.77.378.543.627 1.078.64 1.759.031 1.654.111 3.307.19 4.959.051 1.07.134 2.138.213 3.353l2.589-.191Zm-16.319-.161v-16.46l4.65-.287.133-2.305c-4.381.007-8.646-.059-13.033.154v2.565h4.73l.365 16.675 3.155-.342ZM36.461 91.927c.402-.579.849-1.095 1.156-1.685 1.112-2.14.281-4.108-2.033-4.755-1.948-.545-3.927-.286-6.008-.148-.393 4.495-.198 8.891-.116 13.244 1.264.369 3.072.51 4.347.234.98-.213 1.99-.456 2.876-.903 2.44-1.23 2.687-3.364.684-5.207-.295-.272-.608-.524-.906-.78ZM34.79 44.854c.564.422 1.19.931 1.859 1.379.653.437 1.14 1.139 2.129 1.368-.323-1.79-.846-3.409-1.323-5.053.667-.519 1.296-1.028 1.946-1.51.633-.469 1.287-.91 1.932-1.363l-.073-.233c-1.547-.19-3.099.087-4.676.114-.366-.81-.698-1.62-1.093-2.399-.393-.777-.632-1.664-1.514-2.438l-1.304 5.07c-1.494.423-3.067.122-4.534.545l-.05.219 4.08 2.2-1.413 5.134c.2.05.335.125.378.089 1.203-1.015 2.396-2.042 3.656-3.122Zm11.193 40.513c-.527 1.328-1.006 2.627-1.553 3.896-1.227 2.852-2.49 5.688-3.731 8.534-.139.318-.228.658-.388 1.126l2.129-.113c.258-.663.503-1.288.743-1.913.129-.334.303-.585.713-.611 1.583-.096 3.165-.2 4.746-.322.487-.038.737.195.938.598.301.603.62 1.201.973 1.774.129.209.365.46.578.487.548.069 1.111.023 1.77.023-.105-.341-.146-.566-.239-.768-1.81-3.92-3.625-7.838-5.439-11.756-.071-.153-.148-.304-.21-.46-.176-.442-.483-.625-1.03-.495Zm22.159 5.069-.352-4.748c-.412.029-.678.042-.942.068-.294.028-.586.066-.906.104l.281 13.049 1.78.198c.131-1.955-.05-3.824.18-5.929 1.706 1.898 3.245 3.597 4.767 5.311.641.722 1.972.956 3 .408l-6.102-6.873c.596-.693 1.105-1.322 1.653-1.916 1.099-1.192 2.223-2.362 3.328-3.548.193-.207.515-.384.287-.784-.292 0-.604.049-.894-.01-.709-.143-1.229.134-1.723.607-.902.864-1.835 1.696-2.751 2.546-.514.476-1.02.962-1.606 1.517Zm18.547-5.057c-2.845-.148-5.513.096-8.214.348 0 .503-.009.87.002 1.236.038 1.317.119 2.634.119 3.95 0 2.298-.051 4.595-.072 6.893-.003.317.047.634.074.982 2.805-.107 5.493.325 8.256-.102v-1.752h-6.373l.249-3.777 5.074-.333-.098-1.842c-1.749-.167-3.395.046-5.087-.138l.185-3.452 5.885-.349v-1.664Zm1.473-42.865c-.43 1.254-.858 2.494-1.278 3.738-.089.266-.317.545.091.901l3.563-2.766c.669.486 1.338.999 2.035 1.47.681.459 1.28 1.07 2.311 1.331-.372-1.934-1.017-3.64-1.643-5.395l3.879-2.512-.045-.223c-1.704-.224-3.442.031-5.152-.147-.431-1.164-.843-2.27-1.249-3.377-.114-.31-.161-.672-.703-.663l-1.551 4.446c-1.517.187-2.932.01-4.323.25.034.197.022.297.059.322 1.288.851 2.581 1.694 4.006 2.625Zm-26.437 46.04c.247-.329.424-.534.566-.761.348-.561.291-.8-1.191-1.138-.815-.996-2.599-1.161-4.452-.419-.624.25-1.067.698-1.373 1.289-.943 1.821-.222 4.111 1.607 5.028.664.333 1.379.562 2.036.905.533.278 1.08.588 1.501 1.005.516.51.845 1.207.54 1.94-.316.757-1.068.734-1.75.706-1.067-.044-2.046-.389-2.983-.893-.676-.363-1.004-.189-1.135.542-.156.874.199 1.52 1.171 1.87 1.623.586 3.257.5 4.851-.14 1.28-.514 1.953-1.517 2.124-2.858.17-1.333-.589-2.178-1.618-2.808-.834-.511-1.728-.92-2.586-1.391-.532-.292-1.08-.57-1.562-.933-.722-.544-.864-1.141-.55-1.864.328-.754 1.081-1.202 1.884-1.042.493.098.963.307 1.443.467l1.477.495Zm33.279 9.834.318-11.32 2.925-.304V84.98l-8.8.27v1.927h3.496c0 1.959-.064 3.843.017 5.721.081 1.869-.073 3.758.286 5.714l1.758-.224ZM44.717 11.404c-1.061.019-1.804.632-1.8 1.488.003.966.517 1.469 1.504 1.474 1.045.005 1.782-.631 1.761-1.521-.02-.892-.594-1.456-1.465-1.441ZM11.446 54.136c.021-.819-.611-1.404-1.524-1.41-1.05-.006-1.843.637-1.839 1.493.004.808.58 1.385 1.416 1.419 1.063.042 1.924-.622 1.947-1.502Zm12.196 44.599c-.893.004-1.639.8-1.619 1.727.015.706.701 1.304 1.516 1.322.854.019 1.589-.711 1.612-1.6.02-.771-.69-1.452-1.509-1.449Zm86.876-63.248c.016-.929-.779-1.905-1.571-1.926-.73-.02-1.291.613-1.316 1.483-.025.906.654 1.766 1.411 1.788.724.021 1.463-.653 1.476-1.345Zm-87.345-6.373c-.013-.795-.651-1.435-1.407-1.414-.894.026-1.827.863-1.783 1.601.045.743.708 1.321 1.507 1.312.984-.011 1.698-.647 1.683-1.499Zm92.711 20.452c-.897-.039-1.532.497-1.499 1.353.038.947.349 1.654 1.563 1.653.66-.001 1.408-.794 1.411-1.531.004-.737-.701-1.442-1.475-1.475ZM79.639 12.005c.029-.817-.726-1.568-1.619-1.612a1.453 1.453 0 0 0-1.545 1.384c-.038.771.721 1.401 1.751 1.456.836.044 1.386-.434 1.413-1.228Zm-45.184 4.494c-.947-.013-1.639.606-1.663 1.487-.021.755.596 1.341 1.434 1.361.868.021 1.731-.713 1.739-1.478.008-.843-.558-1.356-1.51-1.37ZM9.121 72.053c.966.012 1.7-.557 1.724-1.335a1.46 1.46 0 0 0-1.435-1.51c-.958-.03-1.81.697-1.796 1.534.012.747.649 1.301 1.507 1.311Zm10.687 25.451c1.011.015 1.822-.647 1.815-1.482-.005-.784-.684-1.428-1.511-1.435-.96-.009-1.568.598-1.572 1.568-.002.855.45 1.336 1.268 1.349Zm20.877-82.428c-.029-.745-.771-1.305-1.659-1.251-.789.047-1.547.799-1.494 1.481.061.793.762 1.413 1.568 1.386.903-.031 1.618-.76 1.585-1.616Zm25.961-6.732c-.926.011-1.482.482-1.495 1.267-.014.804.774 1.56 1.647 1.581.829.019 1.501-.698 1.468-1.568-.03-.778-.679-1.292-1.62-1.28ZM29.531 22.788c.875.025 1.561-.626 1.577-1.497.017-.894-.496-1.483-1.296-1.487-.888-.006-1.737.646-1.753 1.346-.019.824.691 1.615 1.472 1.638Zm7.481 89.131c.917-.016 1.583-.601 1.56-1.369-.024-.807-.776-1.5-1.618-1.491-.831.009-1.569.691-1.539 1.42.037.917.637 1.458 1.597 1.44Zm56.24-94.316c-.789.008-1.344.557-1.341 1.326.004.791.83 1.596 1.65 1.609.6.01 1.518-.922 1.511-1.533-.008-.725-.899-1.411-1.82-1.402ZM14.047 87.982c.944-.013 1.572-.533 1.591-1.318.02-.848-.743-1.571-1.637-1.552-.808.018-1.486.777-1.446 1.619.039.841.545 1.264 1.492 1.251Zm-1.474-39.294c-.025-.774-.751-1.394-1.6-1.366-.782.027-1.583.832-1.565 1.573.02.777.686 1.395 1.461 1.357.895-.045 1.728-.809 1.704-1.564Zm40.139 66.17c-.769.009-1.482.678-1.473 1.382.01.876.69 1.529 1.565 1.504.895-.025 1.562-.573 1.552-1.275-.012-.835-.813-1.621-1.644-1.611Zm59.118-76.039c-.943.002-1.359.37-1.376 1.219-.019.946.631 1.786 1.403 1.814.773.028 1.518-.737 1.537-1.576.019-.885-.596-1.458-1.564-1.457Zm-98.872 3.267c-.981-.009-1.741.625-1.729 1.442.013.846.506 1.404 1.246 1.41 1.034.007 1.895-.711 1.89-1.578-.004-.747-.578-1.267-1.407-1.274ZM8.799 66.465c.958.004 1.588-.525 1.579-1.327-.009-.86-.713-1.548-1.554-1.519-.882.03-1.563.656-1.546 1.42.017.811.669 1.422 1.521 1.426Zm.33-8.164c-1.01-.003-1.624.556-1.654 1.507-.025.787.676 1.391 1.638 1.411.739.015 1.375-.696 1.393-1.557.019-.867-.478-1.359-1.377-1.361Zm47.815-47.969c.007-.836-.645-1.51-1.443-1.49-.882.023-1.77.783-1.753 1.503.015.676.777 1.234 1.703 1.247.926.013 1.486-.459 1.493-1.26Zm-41.716 29.74c.953-.015 1.621-.682 1.581-1.578-.038-.885-.493-1.376-1.276-1.382-.913-.006-1.728.698-1.723 1.488.005.902.568 1.486 1.418 1.472Zm31.814 76.172c.852.017 1.376-.307 1.678-1.035.206-.496.073-1.132-.36-1.465-.578-.445-1.203-.331-1.811-.053-.625.285-1.021 1.024-.905 1.643.105.559.622.895 1.398.91ZM19.546 33.598a1.353 1.353 0 0 0-1.344-1.357c-.804-.014-1.746.702-1.774 1.349-.033.783.581 1.5 1.307 1.528.95.036 1.805-.682 1.811-1.52Zm-7.675 42.356c.021-.845-.504-1.379-1.374-1.399-.94-.022-1.695.635-1.7 1.479-.005.812.556 1.359 1.411 1.378.781.017 1.646-.74 1.663-1.458Zm1.51 5.082c-.021-.697-.659-1.212-1.482-1.196-.952.018-1.598.675-1.578 1.602.016.708.746 1.335 1.519 1.305.804-.03 1.565-.877 1.541-1.711ZM59.446 9.855c.029.853.655 1.404 1.545 1.36.922-.046 1.556-.619 1.547-1.398-.009-.829-.607-1.409-1.415-1.371-.914.043-1.701.704-1.677 1.409Zm53.421 35.577c.034.167.062.474.162.755.311.875 1.036 1.138 1.85.697.699-.379.844-1.008.465-2.019-.262-.7-.807-1.056-1.467-.957-.67.101-1.016.576-1.01 1.524ZM73.989 10.641c.007-.837-.686-1.525-1.55-1.542-.78-.014-1.492.643-1.472 1.36.021.788.818 1.579 1.577 1.568.811-.012 1.438-.614 1.445-1.386Zm28.802 88.33c-.017.97.567 1.715 1.339 1.709.698-.006 1.366-.73 1.361-1.478-.005-.991-.483-1.619-1.257-1.65-.921-.037-1.427.46-1.443 1.419Zm14.321-32.554c-.841.003-1.409.665-1.393 1.623.015.928.488 1.449 1.305 1.437.878-.014 1.478-.641 1.487-1.556.009-.871-.582-1.507-1.399-1.504Zm-89.505 39.21c.93.003 1.64-.542 1.63-1.253-.009-.742-.67-1.437-1.378-1.452-.991-.021-1.76.643-1.771 1.527-.009.8.473 1.173 1.519 1.178Zm79.659-74.78c.029-.858-.636-1.656-1.4-1.68-.871-.026-1.493.491-1.513 1.26-.023.876.544 1.633 1.261 1.685.814.058 1.629-.565 1.652-1.265ZM18.23 91.332c.012-.725-.582-1.315-1.351-1.339-.914-.029-1.61.646-1.607 1.56.002.853.492 1.299 1.433 1.305.869.004 1.509-.637 1.525-1.526Zm23.763 23.065c.919-.009 1.464-.552 1.434-1.43-.028-.818-.473-1.268-1.243-1.258-1.094.015-1.864.686-1.822 1.588.034.72.612 1.11 1.631 1.1Zm71.134-28.443c.84-.01 1.383-.515 1.386-1.287.002-.882-.696-1.672-1.459-1.65-.742.022-1.402.711-1.405 1.469a1.452 1.452 0 0 0 1.478 1.468Zm-11.222-61.132c-.741.027-1.222.554-1.21 1.323.015 1.006.731 1.83 1.539 1.773.686-.048 1.311-.756 1.276-1.444-.042-.831-.867-1.68-1.605-1.652Zm7.007 69.828c-.006-.964-.453-1.477-1.27-1.459-.912.019-1.466.519-1.455 1.313.014.948.697 1.723 1.504 1.704.746-.018 1.228-.633 1.221-1.558ZM83.304 12.234c-.792.013-1.485.71-1.474 1.485.009.672.832 1.427 1.567 1.436.668.01 1.416-.844 1.394-1.59-.022-.745-.691-1.344-1.487-1.331ZM51.37 11.208c.003-.705-.724-1.338-1.511-1.315-.751.023-1.442.689-1.459 1.405-.018.821.556 1.404 1.378 1.397.897-.007 1.588-.653 1.592-1.487Zm64.573 51.021c.009 1.038.474 1.609 1.282 1.575.759-.033 1.403-.759 1.401-1.579-.002-.785-.626-1.441-1.384-1.455-.809-.016-1.307.544-1.299 1.459Zm-.941 18.371c.879-.009 1.417-.539 1.391-1.367-.03-.909-.686-1.6-1.495-1.574-.729.023-1.184.578-1.195 1.458-.01.858.544 1.491 1.299 1.483Zm2.666-7.063c-.021-.86-.576-1.434-1.365-1.412-.804.023-1.43.763-1.401 1.655.025.761.588 1.282 1.387 1.282.814 0 1.401-.648 1.379-1.525ZM97.608 20.94c-.761.006-1.202.457-1.174 1.2.034.907.77 1.752 1.517 1.742.723-.009 1.366-.727 1.345-1.502-.019-.725-.865-1.446-1.688-1.44Zm-1.744 84.406c-.668-.015-1.377.675-1.382 1.345-.005.726.753 1.554 1.44 1.573.764.021 1.34-.59 1.362-1.444.024-.89-.52-1.453-1.42-1.474ZM25.299 26.359c.849-.022 1.478-.663 1.466-1.494-.011-.802-.552-1.313-1.364-1.289-.96.028-1.614.63-1.591 1.465.023.786.648 1.34 1.489 1.318Zm63.203-8.849c.701-.021 1.405-.766 1.384-1.464-.021-.649-.859-1.368-1.551-1.33-.722.04-1.358.689-1.354 1.38.006.82.671 1.439 1.521 1.414Zm27.058 39.088c-.015.959.416 1.507 1.203 1.532.905.029 1.495-.521 1.485-1.383-.009-.832-.627-1.475-1.438-1.497-.802-.021-1.236.447-1.25 1.348Zm-33.348 57.858c-.016-.849-.605-1.479-1.36-1.421-.808.062-1.23.683-1.314 1.638-.056.63.578 1.276 1.16 1.288.911.02 1.532-.597 1.514-1.505Zm-48.573-6.749c.024-.772-.52-1.343-1.304-1.368-.867-.027-1.584.584-1.584 1.349-.001.708.695 1.32 1.508 1.328.766.007 1.356-.552 1.38-1.309Zm78.288-18.016c.008-.838-.561-1.478-1.324-1.488-.759-.01-1.353.639-1.341 1.466.011.805.546 1.348 1.322 1.344.807-.004 1.335-.524 1.343-1.322Zm-35.051 26.431c-.01-.861-.561-1.42-1.369-1.39-.834.031-1.381.61-1.351 1.43.029.79.609 1.374 1.334 1.343.852-.037 1.396-.58 1.386-1.383Zm12.874-6.495c-.02.865.587 1.595 1.33 1.599.705.003 1.322-.676 1.348-1.484.024-.777-.553-1.322-1.43-1.348-.782-.023-1.229.419-1.248 1.233Zm-2.298 2.676c-.009-.596-.785-1.233-1.473-1.21-.589.019-1.214.822-1.19 1.529a1.35 1.35 0 0 0 1.388 1.302c.789-.021 1.29-.658 1.275-1.621Zm-24.648 4.932c.008.8.699 1.57 1.407 1.571.665.001 1.173-.651 1.166-1.495-.008-.809-.534-1.361-1.297-1.359-.683.003-1.284.606-1.276 1.283Zm8.353-.089c.002-.862-.554-1.395-1.487-1.426-.708-.024-1.108.438-1.092 1.261.018.913.517 1.448 1.343 1.438.799-.011 1.235-.46 1.236-1.273ZM58.5 115.904c-.839.011-1.392.577-1.381 1.411.012.858.491 1.325 1.328 1.297.858-.03 1.278-.496 1.244-1.38-.034-.861-.462-1.338-1.191-1.328Zm42.985-12.92c-.008-.742-.529-1.235-1.301-1.23-.753.006-1.165.467-1.179 1.32-.013.781.486 1.385 1.147 1.386.728.001 1.342-.679 1.333-1.476Zm-25.91-73.166c-.348-1.731-.638-3.492-1.078-5.216-.186-.727-.613-1.429-1.063-2.045-.568-.778-1.404-1.165-2.397-1.016-2.895.434-5.798.219-8.7.155-2.937-.066-5.874-.091-8.811-.132-1.097-.016-1.857.491-2.292 1.496-.08.186-.186.361-.264.547-.859 2.041-1.101 4.227-1.574 6.361 1.123.22 25.321.106 26.179-.15ZM57.96 40.862v-3.977h-5.747l.206 3.977h5.541Zm1.661-3.99v3.9h5.699v-3.9h-5.699Zm7.286 3.915c1.43.19 5.05.136 5.665-.051V36.81h-5.665v3.977Zm-8.867-8.78c-1.267-.199-5.072-.148-5.706.05v3.393h5.706v-3.443Zm8.871 10.243v3.448h5.755v-3.439a133.152 133.152 0 0 0-5.755-.009Zm-8.88.043h-5.748v3.41h5.748v-3.41Zm1.607.085v3.307h5.731v-3.334c-1.131-.197-5.036-.162-5.731.027Zm5.721-7.008v-3.406h-5.725v3.406h5.725Zm1.556-.002h5.747v-3.413h-5.747v3.413Zm11.063-3.396h-3.736v3.473h3.029l.707-3.473Zm-27.199 3.352c.02-1.189.071-2.279-.024-3.364h-3.802l.667 3.364h3.159Zm26.18 1.527h-2.651c-.211 1.453-.19 3.254.037 3.932h1.818l.796-3.932Zm-28.105 3.953h1.882c0-.713.014-1.348-.004-1.983-.018-.661-.065-1.321-.101-2.009h-2.569l.792 3.992Zm1.897 4.823v-3.321c-.272-.029-.498-.07-.724-.072-.226-.001-.452.038-.669.058-.103 2.077.356 3.166 1.393 3.335Zm23.892.05c.379-1.094.735-2.196 1.127-3.392H74.2v3.455c.203-.026.425-.009.443-.063Zm-3.48 23.342c.761-1.003.863-1.74.113-2.752a3.59 3.59 0 0 0-1.38-1.119c-1.55-.679-3.17-.739-4.773-.309v5.967c2.389.677 4.639.06 6.04-1.787ZM35.272 96.621c1.278-.475 1.583-2.014.593-2.959a2.324 2.324 0 0 0-.954-.541 7.53 7.53 0 0 0-3.355-.143v3.913c1.279.075 2.52.174 3.716-.27Zm-3.73-5.645c1.011.234 1.98.15 2.931-.041.995-.2 1.506-.784 1.537-1.61.037-1.014-.484-1.726-1.488-2.003-.955-.262-1.92-.201-2.98-.108v3.762Zm14.784-1.153-1.587 4.264h3.439l-1.663-4.22-.189-.044Z" clip-rule="evenodd"/></svg>