<svg width="30" height="30" xmlns="http://www.w3.org/2000/svg"><path d="M15 30C6.716 30 0 23.284 0 15 0 6.716 6.716 0 15 0c8.284 0 15 6.716 15 15 0 8.284-6.716 15-15 15zm0-25c-2.716 0-3.056.012-4.123.06-1.064.049-1.791.218-2.427.465a4.902 4.902 0 0 0-1.772 1.153A4.902 4.902 0 0 0 5.525 8.45c-.247.636-.416 1.363-.465 2.427C5.012 11.944 5 12.284 5 15s.012 3.056.06 4.123c.049 1.064.218 1.791.465 2.427a4.902 4.902 0 0 0 1.153 1.772 4.9 4.9 0 0 0 1.772 1.153c.636.247 1.363.416 2.427.465 1.067.048 1.407.06 4.123.06s3.056-.012 4.123-.06c1.064-.049 1.791-.218 2.427-.465a4.9 4.9 0 0 0 1.772-1.153 4.902 4.902 0 0 0 1.153-1.772c.247-.636.416-1.363.465-2.427.048-1.067.06-1.407.06-4.123s-.012-3.056-.06-4.123c-.049-1.064-.218-1.791-.465-2.427a4.902 4.902 0 0 0-1.153-1.772 4.902 4.902 0 0 0-1.772-1.153c-.636-.247-1.363-.416-2.427-.465C18.056 5.012 17.716 5 15 5zm0 2c2.606 0 2.914.01 3.943.057.952.043 1.468.202 1.812.336.456.177.78.388 1.122.73.342.341.553.666.73 1.122.134.344.293.86.336 1.812C22.99 12.086 23 12.394 23 15s-.01 2.914-.057 3.943c-.043.952-.202 1.468-.336 1.812-.177.456-.388.78-.73 1.122a3.025 3.025 0 0 1-1.122.73c-.344.134-.86.293-1.812.336C17.914 22.99 17.606 23 15 23s-2.914-.01-3.943-.057c-.952-.043-1.468-.202-1.812-.336a3.025 3.025 0 0 1-1.122-.73 3.024 3.024 0 0 1-.73-1.122c-.134-.344-.293-.86-.336-1.812C7.01 17.914 7 17.606 7 15s.01-2.914.057-3.943c.043-.952.202-1.468.336-1.812.177-.456.388-.78.73-1.122a3.027 3.027 0 0 1 1.122-.73c.344-.134.86-.293 1.812-.336C12.086 7.01 12.394 7 15 7zm0 11.246a3.246 3.246 0 1 1 0-6.492 3.246 3.246 0 0 1 0 6.492zM15 10a5 5 0 1 0 0 10 5 5 0 0 0 0-10zm6 0a1 1 0 1 0-2 0 1 1 0 0 0 2 0z" fill="#fff" fill-rule="evenodd"/></svg>